#Comment line ignore any data following # character 
#Hierarchical Translation and Rotation (.htr) file 
[Header]	
#Header keywords are followed by a single value 
FileType HTR		#Single word string
DataType HTRS		#Translation followed by rotation and scale data
FileVersion 1		#integer
NumSegments 84		#integer
NumFrames 2		#integer
DataFrameRate 30		#integer, data frame rate in this file
EulerRotationOrder ZYX
CalibrationUnits mm
RotationUnits Degrees
GlobalAxisofGravity Y
BoneLengthAxis Y
ScaleFactor 1.00
[SegmentNames&Hierarchy]
#CHILD	PARENT
MASTER GLOBAL
root MASTER
chest root
L_mid_tent01 root
R_mid_tent01 root
spine01 root
Bip01_Neck chest
L_humerus chest
R_humerus chest
weapon_bone chest
Bip01_Head Bip01_Neck
eye_left_bone Bip01_Head
eye_right_bone Bip01_Head
L_forearm L_humerus
L_front_hand L_forearm
L_weapon_bone L_forearm
L_front_hand01_01 L_front_hand
L_front_hand02_01 L_front_hand
L_front_hand03_01 L_front_hand
L_front_hand01_02 L_front_hand01_01
L_front_hand02_02 L_front_hand02_01
L_front_hand03_02 L_front_hand03_01
R_forearm R_humerus
R_front_hand R_forearm
R_weapon_bone R_forearm
R_front_hand01_01 R_front_hand
R_front_hand02_01 R_front_hand
R_front_hand03_01 R_front_hand
R_front_hand01_02 R_front_hand01_01
R_front_hand02_02 R_front_hand02_01
R_front_hand03_02 R_front_hand03_01
null_rope01_connect L_mid_tent01
Rope1_Seg01 null_rope01_connect
Rope1_Seg02 Rope1_Seg01
Rope1_Seg03 Rope1_Seg02
Rope1_Seg04 Rope1_Seg03
Rope1_Seg05 Rope1_Seg04
Rope1_Seg06 Rope1_Seg05
Rope1_Seg07 Rope1_Seg06
Rope1_Seg09 Rope1_Seg07
L_mid_hand01 Rope1_Seg09
L_mid_hand02 Rope1_Seg09
L_mid_hand03 Rope1_Seg09
null_rope02_connect R_mid_tent01
Rope2_Seg01 null_rope02_connect
Rope2_Seg02 Rope2_Seg01
Rope2_Seg03 Rope2_Seg02
Rope2_Seg04 Rope2_Seg03
Rope2_Seg05 Rope2_Seg04
Rope2_Seg06 Rope2_Seg05
Rope2_Seg07 Rope2_Seg06
Rope2_Seg09 Rope2_Seg07
R_mid_hand01 Rope2_Seg09
R_mid_hand02 Rope2_Seg09
R_mid_hand03 Rope2_Seg09
spine02 spine01
spine03 spine02
pelvis spine03
null_rope03_connect pelvis
null_rope04_connect pelvis
Rope3_Seg01 null_rope03_connect
Rope3_Seg02 Rope3_Seg01
Rope3_Seg03 Rope3_Seg02
Rope3_Seg04 Rope3_Seg03
Rope3_Seg05 Rope3_Seg04
Rope3_Seg06 Rope3_Seg05
Rope3_Seg07 Rope3_Seg06
Rope3_Seg08 Rope3_Seg07
Rope3_Seg09 Rope3_Seg08
R_rear_hand01 Rope3_Seg09
R_rear_hand02 Rope3_Seg09
R_rear_hand03 Rope3_Seg09
Rope4_Seg01 null_rope04_connect
Rope4_Seg02 Rope4_Seg01
Rope4_Seg03 Rope4_Seg02
Rope4_Seg04 Rope4_Seg03
Rope4_Seg05 Rope4_Seg04
Rope4_Seg06 Rope4_Seg05
Rope4_Seg07 Rope4_Seg06
Rope4_Seg08 Rope4_Seg07
Rope4_Seg09 Rope4_Seg08
L_rear_hand01 Rope4_Seg09
L_rear_hand02 Rope4_Seg09
L_rear_hand03 Rope4_Seg09
[BasePosition]
#SegmentName Tx, Ty, Tz, Rx, Ry, Rz, BoneLength
MASTER 0.000000 0.000000 0.000000 -90.000000 0.000000 0.000000 10.000000 
root 0.000000 0.000000 0.000000 0.000000 0.000000 0.000000 10.000000 
chest 0.000000 0.000000 0.000000 0.000000 0.000000 0.000000 10.000000 
L_mid_tent01 0.000000 0.000000 0.000000 0.000000 0.000000 0.000000 10.000000 
R_mid_tent01 0.000000 0.000000 0.000000 0.000000 0.000000 0.000000 10.000000 
spine01 0.000000 0.000000 0.000000 0.000000 0.000000 0.000000 10.000000 
Bip01_Neck 0.000000 0.000000 0.000000 0.000000 0.000000 0.000000 10.000000 
L_humerus 0.000000 0.000000 0.000000 0.000000 0.000000 0.000000 10.000000 
R_humerus 0.000000 0.000000 0.000000 0.000000 0.000000 0.000000 10.000000 
weapon_bone 0.000000 0.000000 0.000000 0.000000 0.000000 0.000000 10.000000 
Bip01_Head 0.000000 0.000000 0.000000 0.000000 0.000000 0.000000 10.000000 
eye_left_bone 0.000000 0.000000 0.000000 0.000000 0.000000 0.000000 10.000000 
eye_right_bone 0.000000 0.000000 0.000000 0.000000 0.000000 0.000000 10.000000 
L_forearm 0.000000 0.000000 0.000000 0.000000 0.000000 0.000000 10.000000 
L_front_hand 0.000000 0.000000 0.000000 0.000000 0.000000 0.000000 10.000000 
L_weapon_bone 0.000000 0.000000 0.000000 0.000000 0.000000 0.000000 10.000000 
L_front_hand01_01 0.000000 0.000000 0.000000 0.000000 0.000000 0.000000 10.000000 
L_front_hand02_01 0.000000 0.000000 0.000000 0.000000 0.000000 0.000000 10.000000 
L_front_hand03_01 0.000000 0.000000 0.000000 0.000000 0.000000 0.000000 10.000000 
L_front_hand01_02 0.000000 0.000000 0.000000 0.000000 0.000000 0.000000 10.000000 
L_front_hand02_02 0.000000 0.000000 0.000000 0.000000 0.000000 0.000000 10.000000 
L_front_hand03_02 0.000000 0.000000 0.000000 0.000000 0.000000 0.000000 10.000000 
R_forearm 0.000000 0.000000 0.000000 0.000000 0.000000 0.000000 10.000000 
R_front_hand 0.000000 0.000000 0.000000 0.000000 0.000000 0.000000 10.000000 
R_weapon_bone 0.000000 0.000000 0.000000 0.000000 0.000000 0.000000 10.000000 
R_front_hand01_01 0.000000 0.000000 0.000000 0.000000 0.000000 0.000000 10.000000 
R_front_hand02_01 0.000000 0.000000 0.000000 0.000000 0.000000 0.000000 10.000000 
R_front_hand03_01 0.000000 0.000000 0.000000 0.000000 0.000000 0.000000 10.000000 
R_front_hand01_02 0.000000 0.000000 0.000000 0.000000 0.000000 0.000000 10.000000 
R_front_hand02_02 0.000000 0.000000 0.000000 0.000000 0.000000 0.000000 10.000000 
R_front_hand03_02 0.000000 0.000000 0.000000 0.000000 0.000000 0.000000 10.000000 
null_rope01_connect 0.000000 0.000000 0.000000 0.000000 0.000000 0.000000 10.000000 
Rope1_Seg01 0.000000 0.000000 0.000000 0.000000 0.000000 0.000000 10.000000 
Rope1_Seg02 0.000000 0.000000 0.000000 0.000000 0.000000 0.000000 10.000000 
Rope1_Seg03 0.000000 0.000000 0.000000 0.000000 0.000000 0.000000 10.000000 
Rope1_Seg04 0.000000 0.000000 0.000000 0.000000 0.000000 0.000000 10.000000 
Rope1_Seg05 0.000000 0.000000 0.000000 0.000000 0.000000 0.000000 10.000000 
Rope1_Seg06 0.000000 0.000000 0.000000 0.000000 0.000000 0.000000 10.000000 
Rope1_Seg07 0.000000 0.000000 0.000000 0.000000 0.000000 0.000000 10.000000 
Rope1_Seg09 0.000000 0.000000 0.000000 0.000000 0.000000 0.000000 10.000000 
L_mid_hand01 0.000000 0.000000 0.000000 0.000000 0.000000 0.000000 10.000000 
L_mid_hand02 0.000000 0.000000 0.000000 0.000000 0.000000 0.000000 10.000000 
L_mid_hand03 0.000000 0.000000 0.000000 0.000000 0.000000 0.000000 10.000000 
null_rope02_connect 0.000000 0.000000 0.000000 0.000000 0.000000 0.000000 10.000000 
Rope2_Seg01 0.000000 0.000000 0.000000 0.000000 0.000000 0.000000 10.000000 
Rope2_Seg02 0.000000 0.000000 0.000000 0.000000 0.000000 0.000000 10.000000 
Rope2_Seg03 0.000000 0.000000 0.000000 0.000000 0.000000 0.000000 10.000000 
Rope2_Seg04 0.000000 0.000000 0.000000 0.000000 0.000000 0.000000 10.000000 
Rope2_Seg05 0.000000 0.000000 0.000000 0.000000 0.000000 0.000000 10.000000 
Rope2_Seg06 0.000000 0.000000 0.000000 0.000000 0.000000 0.000000 10.000000 
Rope2_Seg07 0.000000 0.000000 0.000000 0.000000 0.000000 0.000000 10.000000 
Rope2_Seg09 0.000000 0.000000 0.000000 0.000000 0.000000 0.000000 10.000000 
R_mid_hand01 0.000000 0.000000 0.000000 0.000000 0.000000 0.000000 10.000000 
R_mid_hand02 0.000000 0.000000 0.000000 0.000000 0.000000 0.000000 10.000000 
R_mid_hand03 0.000000 0.000000 0.000000 0.000000 0.000000 0.000000 10.000000 
spine02 0.000000 0.000000 0.000000 0.000000 0.000000 0.000000 10.000000 
spine03 0.000000 0.000000 0.000000 0.000000 0.000000 0.000000 10.000000 
pelvis 0.000000 0.000000 0.000000 0.000000 0.000000 0.000000 10.000000 
null_rope03_connect 0.000000 0.000000 0.000000 0.000000 0.000000 0.000000 10.000000 
null_rope04_connect 0.000000 0.000000 0.000000 0.000000 0.000000 0.000000 10.000000 
Rope3_Seg01 0.000000 0.000000 0.000000 0.000000 0.000000 0.000000 10.000000 
Rope3_Seg02 0.000000 0.000000 0.000000 0.000000 0.000000 0.000000 10.000000 
Rope3_Seg03 0.000000 0.000000 0.000000 0.000000 0.000000 0.000000 10.000000 
Rope3_Seg04 0.000000 0.000000 0.000000 0.000000 0.000000 0.000000 10.000000 
Rope3_Seg05 0.000000 0.000000 0.000000 0.000000 0.000000 0.000000 10.000000 
Rope3_Seg06 0.000000 0.000000 0.000000 0.000000 0.000000 0.000000 10.000000 
Rope3_Seg07 0.000000 0.000000 0.000000 0.000000 0.000000 0.000000 10.000000 
Rope3_Seg08 0.000000 0.000000 0.000000 0.000000 0.000000 0.000000 10.000000 
Rope3_Seg09 0.000000 0.000000 0.000000 0.000000 0.000000 0.000000 10.000000 
R_rear_hand01 0.000000 0.000000 0.000000 0.000000 0.000000 0.000000 10.000000 
R_rear_hand02 0.000000 0.000000 0.000000 0.000000 0.000000 0.000000 10.000000 
R_rear_hand03 0.000000 0.000000 0.000000 0.000000 0.000000 0.000000 10.000000 
Rope4_Seg01 0.000000 0.000000 0.000000 0.000000 0.000000 0.000000 10.000000 
Rope4_Seg02 0.000000 0.000000 0.000000 0.000000 0.000000 0.000000 10.000000 
Rope4_Seg03 0.000000 0.000000 0.000000 0.000000 0.000000 0.000000 10.000000 
Rope4_Seg04 0.000000 0.000000 0.000000 0.000000 0.000000 0.000000 10.000000 
Rope4_Seg05 0.000000 0.000000 0.000000 0.000000 0.000000 0.000000 10.000000 
Rope4_Seg06 0.000000 0.000000 0.000000 0.000000 0.000000 0.000000 10.000000 
Rope4_Seg07 0.000000 0.000000 0.000000 0.000000 0.000000 0.000000 10.000000 
Rope4_Seg08 0.000000 0.000000 0.000000 0.000000 0.000000 0.000000 10.000000 
Rope4_Seg09 0.000000 0.000000 0.000000 0.000000 0.000000 0.000000 10.000000 
L_rear_hand01 0.000000 0.000000 0.000000 0.000000 0.000000 0.000000 10.000000 
L_rear_hand02 0.000000 0.000000 0.000000 0.000000 0.000000 0.000000 10.000000 
L_rear_hand03 0.000000 0.000000 0.000000 0.000000 0.000000 0.000000 10.000000 
#Beginning of Data. Separated by tabs
#Fr	Tx	Ty	Tz	Rx	Ry	Rz	SF
[MASTER]
3 0.000000 0.000000 0.000000 0.001660 0.001660 0.001660 0.000000
4 0.000000 0.000000 0.000000 0.001660 0.001660 0.001660 0.000000
[root]
3 -12.761441 -2.160468 1497.643311 -91.706375 7.188744 -90.037125 1497.699341
4 -9.287778 -4.309415 1495.137451 -91.706375 7.188744 -90.037125 1495.172485
[chest]
3 -84.512650 -34.090519 0.000000 -2.117274 0.462005 -179.268204 91.129311
4 -84.512650 -34.090519 0.000000 -2.117274 0.462005 -179.268204 91.129311
[L_mid_tent01]
3 27.299511 22.177458 -249.918259 -11.212391 7.173965 46.128521 252.381134
4 27.299511 22.177458 -249.918259 -11.212391 7.173965 46.128521 252.381134
[R_mid_tent01]
3 23.228794 24.509907 226.238495 -173.453110 -7.865566 48.320808 228.744751
4 23.228794 24.509907 226.238495 -173.453110 -7.865565 48.320805 228.744751
[spine01]
3 -0.361383 -0.195265 0.000000 -0.000001 -0.000007 22.052340 0.410763
4 -0.361383 -0.195265 0.000000 -0.000001 -0.000007 22.052340 0.410763
[Bip01_Neck]
3 165.484543 71.581718 0.000119 175.896118 1.177290 24.871183 180.302734
4 165.484543 71.581718 0.000119 175.896118 1.177290 24.871183 180.302734
[L_humerus]
3 -13.983130 -135.272980 -120.471481 177.317520 0.814944 177.327347 181.680161
4 -13.983130 -135.272980 -120.471481 177.317520 0.814944 177.327347 181.680161
[R_humerus]
3 -13.983309 -135.273102 125.287651 -179.087967 -0.295690 175.068390 184.909012
4 -13.983309 -135.273102 125.287651 -179.087967 -0.295690 175.068390 184.909012
[weapon_bone]
3 235.964890 -300.705902 0.000000 0.000000 -89.951546 -128.212341 382.234833
4 235.964890 -300.705902 0.000000 0.000000 -89.951546 -128.212341 382.234833
[Bip01_Head]
3 97.775497 22.186661 5.309563 3.366012 3.339071 -18.399078 100.401627
4 97.775497 22.186661 5.309563 3.366012 3.339071 -18.399078 100.401627
[eye_left_bone]
3 -24.626970 125.451866 -64.772606 0.000000 -90.000000 -99.840431 143.318359
4 -24.626970 125.451866 -64.772606 0.000000 -90.000000 -99.840431 143.318359
[eye_right_bone]
3 -24.626970 125.451866 64.327362 0.000000 -89.965736 80.156380 143.117676
4 -24.626970 125.451866 64.327362 0.000000 -89.965736 80.156380 143.117676
[L_forearm]
3 322.776093 0.000000 -0.000119 0.001372 -0.001904 -161.553818 322.776093
4 322.776093 0.000000 -0.000119 0.001372 -0.001904 -161.553818 322.776093
[L_front_hand]
3 241.149185 -0.042021 -3.300071 -179.659958 -2.242151 -0.019832 241.171753
4 241.149185 -0.042021 -3.300071 -179.659958 -2.242151 -0.019832 241.171753
[L_weapon_bone]
3 156.183838 0.000000 0.000000 0.000014 0.000007 0.000001 156.183838
4 156.183838 0.000000 0.000000 0.000014 0.000007 0.000001 156.183838
[L_front_hand01_01]
3 86.095154 20.947098 -0.655860 0.405585 -0.442306 -4.620490 88.609184
4 86.095154 20.947098 -0.655860 0.405585 -0.442306 -4.620490 88.609184
[L_front_hand02_01]
3 86.935165 -11.437475 24.513514 116.959450 3.630817 1.495453 91.046425
4 86.935165 -11.437475 24.513514 116.959450 3.630817 1.495453 91.046425
[L_front_hand03_01]
3 86.637497 -14.123976 -20.424902 -118.419884 -4.660555 -0.155069 90.126129
4 86.637497 -14.123976 -20.424902 -118.419884 -4.660555 -0.155069 90.126129
[L_front_hand01_02]
3 71.020905 -0.000179 0.000030 0.000004 -0.000005 -8.379269 71.020905
4 71.020905 -0.000179 0.000030 0.000004 -0.000005 -8.379269 71.020905
[L_front_hand02_02]
3 71.020927 -0.000119 0.000060 -0.000005 -0.000004 -8.379259 71.020927
4 71.020927 -0.000119 0.000060 -0.000005 -0.000004 -8.379259 71.020927
[L_front_hand03_02]
3 71.020905 -0.000060 0.000060 0.000015 -0.000040 -8.379267 71.020905
4 71.020905 -0.000060 0.000060 0.000015 -0.000040 -8.379267 71.020905
[R_forearm]
3 322.776428 -0.000060 0.000030 0.066610 0.203476 -163.260239 322.776428
4 322.776428 -0.000060 0.000030 0.066610 0.203476 -163.260239 322.776428
[R_front_hand]
3 238.847015 -0.006795 2.210259 -0.270529 1.703932 2.322530 238.857239
4 238.847015 -0.006795 2.210259 -0.270529 1.703932 2.322530 238.857239
[R_weapon_bone]
3 155.664093 0.002503 -0.000030 0.003487 0.001180 -90.988930 155.664078
4 155.664093 0.002503 -0.000030 0.003487 0.001180 -90.988930 155.664078
[R_front_hand01_01]
3 87.624611 14.231146 22.918642 -116.960213 3.496675 -1.324138 91.683487
4 87.624611 14.231146 22.918642 -116.960213 3.496675 -1.324139 91.683487
[R_front_hand02_01]
3 89.356956 14.367283 -19.491137 118.419647 -4.257089 0.609827 92.579636
4 89.356956 14.367283 -19.491137 118.419647 -4.257089 0.609827 92.579636
[R_front_hand03_01]
3 87.286232 -22.307278 -0.143439 -0.387970 -0.231462 4.232001 90.091743
4 87.286232 -22.307278 -0.143439 -0.387970 -0.231462 4.232001 90.091743
[R_front_hand01_02]
3 71.020905 0.000060 0.000119 -0.000005 -0.000020 8.379271 71.020905
4 71.020905 0.000060 0.000119 -0.000005 -0.000020 8.379271 71.020905
[R_front_hand02_02]
3 71.020844 -0.000030 -0.000119 0.000000 -0.000021 8.379271 71.020836
4 71.020844 -0.000030 -0.000119 0.000000 -0.000021 8.379271 71.020836
[R_front_hand03_02]
3 71.020905 0.000000 0.000030 -0.000001 -0.000020 8.379275 71.020905
4 71.020905 0.000000 0.000030 -0.000001 -0.000020 8.379275 71.020905
[null_rope01_connect]
3 328.732483 0.000000 -0.000238 160.552872 -75.066147 -124.625053 328.732483
4 328.732483 0.000000 -0.000238 160.552872 -75.066147 -124.625038 328.732483
[Rope1_Seg01]
3 0.000000 0.000000 0.000000 -99.690750 55.220905 -101.163963 0.000000
4 0.000000 0.000000 0.000000 -100.863724 54.841610 -102.107346 0.000000
[Rope1_Seg02]
3 139.999863 -0.000179 0.000000 22.193497 -8.679738 -11.210900 139.999863
4 139.999863 -0.000179 0.000000 23.914061 -9.722770 -11.604857 139.999863
[Rope1_Seg03]
3 139.999924 0.000060 -0.000060 12.939036 -9.897504 -3.596530 139.999924
4 139.999924 0.000060 -0.000060 13.264010 -10.833214 -3.402177 139.999924
[Rope1_Seg04]
3 139.999924 -0.000060 -0.000119 6.263742 -8.378391 0.396633 139.999924
4 139.999924 -0.000060 -0.000119 6.184737 -8.942942 0.650266 139.999924
[Rope1_Seg05]
3 139.999832 0.000119 -0.000060 1.197902 0.880892 -2.704798 139.999832
4 139.999832 0.000119 -0.000060 0.921710 0.926752 -2.459134 139.999832
[Rope1_Seg06]
3 139.999954 0.000119 -0.000060 -3.473906 10.388535 -9.485637 139.999954
4 139.999954 0.000119 -0.000060 -4.524142 11.065917 -9.082539 139.999954
[Rope1_Seg07]
3 139.999985 0.000060 0.000000 -47.867172 19.335899 -15.957926 139.999985
4 139.999985 0.000060 0.000000 -56.082500 21.772736 -15.590576 139.999985
[Rope1_Seg09]
3 121.602913 0.000119 -0.000089 -89.793175 -1.359789 0.847147 121.602913
4 121.602913 0.000119 -0.000089 -89.793175 -1.359789 0.847147 121.602913
[L_mid_hand01]
3 103.859421 1.038730 8.195221 106.855484 -31.239275 -9.461397 104.187431
4 103.859421 1.038730 8.195221 106.855484 -31.239275 -9.461397 104.187431
[L_mid_hand02]
3 105.572853 -4.139662 -10.864139 -142.331345 25.752670 -28.774628 106.211075
4 105.572853 -4.139662 -10.864139 -142.331345 25.752670 -28.774628 106.211075
[L_mid_hand03]
3 104.641464 17.579376 -3.913581 -16.122810 9.734291 34.223598 106.179977
4 104.641464 17.579376 -3.913581 -16.122810 9.734291 34.223598 106.179977
[null_rope02_connect]
3 328.732849 0.000179 -0.000119 174.610321 81.478378 -39.424759 328.732849
4 328.732849 0.000179 -0.000119 174.610336 81.478409 -39.424759 328.732849
[Rope2_Seg01]
3 0.000076 0.000110 0.000153 119.409409 48.016567 -107.882935 0.000203
4 0.000076 0.000110 0.000153 121.307838 47.966732 -105.429131 0.000203
[Rope2_Seg02]
3 139.999741 -0.000060 -0.000119 -0.849491 9.358331 -3.422898 139.999756
4 139.999741 -0.000060 -0.000119 -1.269083 8.088533 -2.051658 139.999756
[Rope2_Seg03]
3 140.000107 0.000030 0.000000 0.870094 6.071490 -3.900333 140.000107
4 140.000107 0.000030 0.000000 -0.696911 4.343020 -1.192824 140.000107
[Rope2_Seg04]
3 139.999802 0.000000 -0.000060 -6.877804 14.295976 -2.155158 139.999802
4 139.999802 0.000000 -0.000060 -5.472667 14.479945 -2.880288 139.999802
[Rope2_Seg05]
3 139.999985 -0.000060 0.000119 -6.456979 5.589129 0.747481 139.999985
4 139.999985 -0.000060 0.000119 -4.028357 5.934004 -0.534271 139.999985
[Rope2_Seg06]
3 139.999893 -0.000030 -0.000119 -2.684005 2.012600 0.310752 139.999893
4 139.999893 -0.000030 -0.000119 -1.869249 2.093147 -0.057224 139.999893
[Rope2_Seg07]
3 139.999893 0.000060 -0.000060 -1.830865 1.197576 0.239748 139.999893
4 139.999893 0.000060 -0.000060 -1.299081 1.258049 0.007179 139.999893
[Rope2_Seg09]
3 121.338966 0.000089 -0.000060 33.793236 -1.359788 -0.847141 121.338966
4 121.338966 0.000089 -0.000060 33.793236 -1.359788 -0.847141 121.338966
[R_mid_hand01]
3 104.680779 11.144459 -10.335981 -41.523792 25.424656 28.595957 105.778534
4 104.680779 11.144459 -10.335981 -41.523792 25.424656 28.595957 105.778534
[R_mid_hand02]
3 104.070427 2.443552 8.231699 72.847389 -32.746803 10.013901 104.424065
4 104.070427 2.443552 8.231699 72.847389 -32.746803 10.013901 104.424065
[R_mid_hand03]
3 106.028137 -11.221827 -5.996406 -167.901306 10.259192 -37.009720 106.788818
4 106.028137 -11.221827 -5.996406 -167.901306 10.259192 -37.009720 106.788818
[spine02]
3 129.756927 0.001550 0.000119 0.360061 -4.044797 -12.915058 129.756927
4 129.756927 0.001550 0.000119 0.360061 -4.044797 -12.915058 129.756927
[spine03]
3 78.613846 0.087372 -4.898873 1.896495 3.831287 16.473045 78.766380
4 78.613846 0.087372 -4.898873 1.896495 3.831288 16.473045 78.766380
[pelvis]
3 169.435242 0.051022 0.000000 -0.060465 -0.180225 14.087930 169.435257
4 169.435242 0.051022 0.000000 -0.060465 -0.180225 14.087930 169.435257
[null_rope03_connect]
3 -1.257226 -2.466202 137.391083 -168.629776 -89.386429 -148.244614 137.418976
4 -1.257226 -2.466202 137.391083 -168.629776 -89.386429 -148.244614 137.418976
[null_rope04_connect]
3 -1.259640 -2.480268 -137.844437 -168.629776 -89.386429 -148.244614 137.872513
4 -1.259640 -2.480268 -137.844437 -168.629776 -89.386429 -148.244614 137.872513
[Rope3_Seg01]
3 0.000000 0.000000 0.000000 -130.778229 10.155994 -77.175751 0.000000
4 0.000000 0.000000 0.000000 -130.632156 11.776930 -76.045967 0.000000
[Rope3_Seg02]
3 139.999924 -0.000119 0.000060 0.461449 5.326088 7.633572 139.999924
4 139.999924 -0.000119 0.000060 0.567437 5.975276 6.934252 139.999924
[Rope3_Seg03]
3 139.999924 -0.000119 0.000119 1.376647 8.576045 10.405647 139.999924
4 139.999924 -0.000119 0.000119 1.761786 9.485596 9.489121 139.999924
[Rope3_Seg04]
3 139.999924 0.000119 0.000000 5.619977 14.701709 14.334028 139.999924
4 139.999924 0.000119 0.000000 7.129165 16.501736 13.181200 139.999924
[Rope3_Seg05]
3 139.999924 -0.000238 0.000060 -9.467352 -14.428611 -0.067740 139.999924
4 139.999924 -0.000238 0.000060 -10.166679 -13.933681 1.837465 139.999924
[Rope3_Seg06]
3 139.999893 -0.000119 -0.000060 -3.812913 -18.340014 -7.625082 139.999893
4 139.999893 -0.000119 -0.000060 -5.174116 -18.133074 -5.120473 139.999893
[Rope3_Seg07]
3 139.999771 0.000060 -0.000119 -0.569766 -7.179631 -2.663571 139.999771
4 139.999771 0.000060 -0.000119 -0.974269 -7.002273 -1.787060 139.999771
[Rope3_Seg08]
3 139.999985 -0.000060 0.000000 0.118220 -4.127644 -1.586294 139.999985
4 139.999985 -0.000060 0.000000 -0.102765 -4.040984 -1.108204 139.999985
[Rope3_Seg09]
3 90.185997 -0.000179 -0.000060 89.793228 -1.359877 -0.847183 90.185997
4 90.185997 -0.000179 -0.000060 89.793228 -1.359877 -0.847183 90.185997
[R_rear_hand01]
3 103.366196 -6.073594 -10.757982 -161.551193 16.666374 -30.088671 104.101845
4 103.366196 -6.073594 -10.757982 -161.551193 16.666374 -30.088671 104.101845
[R_rear_hand02]
3 100.509819 12.039542 -7.992327 -34.280552 19.289745 28.875523 101.543350
4 100.509819 12.039542 -7.992327 -34.280552 19.289745 28.875523 101.543350
[R_rear_hand03]
3 101.539970 5.215704 5.435467 83.366440 -30.933914 7.284830 101.819031
4 101.539970 5.215704 5.435467 83.366440 -30.933914 7.284830 101.819031
[Rope4_Seg01]
3 0.000010 0.000038 -0.000114 55.872868 27.074074 -84.005226 0.000121
4 0.000010 0.000038 -0.000114 56.096214 25.966032 -82.213982 0.000121
[Rope4_Seg02]
3 139.999985 0.000060 0.000119 0.837014 -6.425726 -4.985596 139.999985
4 139.999985 0.000060 0.000119 1.198636 -6.353934 -5.833258 139.999985
[Rope4_Seg03]
3 139.999924 0.000000 -0.000238 0.797500 -7.589149 -6.006875 139.999924
4 139.999924 0.000000 -0.000238 1.051732 -7.451954 -6.890828 139.999924
[Rope4_Seg04]
3 139.999985 0.000000 0.000119 1.116683 -11.668671 -12.381083 139.999985
4 139.999985 0.000000 0.000119 1.168033 -10.798418 -12.972991 139.999985
[Rope4_Seg05]
3 139.999802 -0.000060 -0.000119 0.544057 -3.484938 0.875767 139.999802
4 139.999802 -0.000060 -0.000119 0.421799 -3.738584 0.166032 139.999802
[Rope4_Seg06]
3 139.999924 0.000000 0.000060 2.284814 6.190294 16.208790 139.999924
4 139.999924 0.000000 0.000060 1.992107 4.259917 14.662751 139.999924
[Rope4_Seg07]
3 139.999802 0.000000 0.000000 -0.081537 3.575198 10.359701 139.999802
4 139.999802 0.000000 0.000000 0.123450 2.328945 9.388679 139.999802
[Rope4_Seg08]
3 139.999924 0.000000 0.000119 -2.172406 1.719734 5.962766 139.999924
4 139.999924 0.000000 0.000119 -1.892108 1.006557 5.373816 139.999924
[Rope4_Seg09]
3 90.185791 0.000060 0.000060 -135.617828 2.228885 0.850567 90.185791
4 90.185791 0.000060 0.000060 -135.617828 2.228885 0.850567 90.185791
[L_rear_hand01]
3 101.696655 -8.392275 -7.654577 -34.454281 -18.946800 151.655121 102.329041
4 101.696655 -8.392275 -7.654577 -34.454281 -18.946800 151.655121 102.329041
[L_rear_hand02]
3 102.726799 -1.568258 5.773216 83.407906 30.330435 172.796509 102.900848
4 102.726799 -1.568258 5.773216 83.407906 30.330435 172.796509 102.900848
[L_rear_hand03]
3 104.552910 9.721220 -10.420293 -161.379868 -16.473232 -150.512238 105.519653
4 104.552910 9.721220 -10.420293 -161.379868 -16.473232 -150.512238 105.519653
